<?xml version="1.0" encoding="UTF-8"?>
<svg width="162px" height="40px" viewBox="0 0 162 40" version="1.1" xmlns="http://www.w3.org/2000/svg" xmlns:xlink="http://www.w3.org/1999/xlink">
    <!-- Generator: Sketch 52.6 (67491) - http://www.bohemiancoding.com/sketch -->
    <title>logo-white</title>
    <desc>Created with Sketch.</desc>
    <g id="Page-1" stroke="none" stroke-width="1" fill="none" fill-rule="evenodd">
        <g id="首页" transform="translate(-135.000000, -30.000000)" fill="#FFFFFF">
            <g id="Group-5" transform="translate(135.000000, 30.000000)">
                <g id="logo-white">
                    <g id="Group">
                        <path d="M29.2040668,40 L29.2493126,40 L41.1644662,40 C44.3282237,39.9952857 46.8912895,37.3085632 46.8947368,33.9939816 C46.8943059,30.9498294 44.7220775,28.3856787 41.8371202,28.0239633 C41.4027607,26.3019581 40.4271754,24.7835248 39.0676474,23.7142359 C37.7076884,22.6440897 36.1150369,22.1276596 34.5357436,22.1276596 C32.2394124,22.1276596 29.9706596,23.2200915 28.4857361,25.2926693 C24.8802936,25.6809562 22.1457247,28.8755374 22.1685631,32.673549 C22.1931251,36.7295614 25.3383533,40 29.2040668,40 Z" id="Fill-5"></path>
                        <path d="M4.68947368,4.73101075 C4.68947368,4.01832258 5.26201579,3.44068817 5.96842105,3.44068817 C6.67482632,3.44068817 7.24736842,4.01832258 7.24736842,4.73101075 C7.24736842,5.44369892 6.67482632,6.02133333 5.96842105,6.02133333 C5.26201579,6.02133333 4.68947368,5.44369892 4.68947368,4.73101075 M10.2315789,3.44068817 C10.9379842,3.44068817 11.5105263,4.01832258 11.5105263,4.73101075 C11.5105263,5.44369892 10.9379842,6.02133333 10.2315789,6.02133333 C9.52517368,6.02133333 8.95263158,5.44369892 8.95263158,4.73101075 C8.95263158,4.01832258 9.52517368,3.44068817 10.2315789,3.44068817 M14.4947368,3.44068817 C15.2011421,3.44068817 15.7736842,4.01832258 15.7736842,4.73101075 C15.7736842,5.44369892 15.2011421,6.02133333 14.4947368,6.02133333 C13.7883316,6.02133333 13.2157895,5.44369892 13.2157895,4.73101075 C13.2157895,4.01832258 13.7883316,3.44068817 14.4947368,3.44068817 M20.2077947,34.8385376 L6.82105263,34.8385376 C5.87932105,34.8385376 5.11578947,34.0682151 5.11578947,33.1181075 L5.11578947,11.1826237 C5.11578947,10.2325161 5.87932105,9.46219355 6.82105263,9.46219355 L35.8105263,9.46219355 C36.7522579,9.46219355 37.5157895,10.2325161 37.5157895,11.1826237 L37.5157895,19.8940215 C38.7000947,20.2492903 39.8196,20.8282151 40.8265579,21.6316559 C41.5035474,22.171871 42.1089158,22.8015484 42.6315789,23.4983226 L42.6315789,1.72283871 C42.6315789,0.771010753 41.8671947,-0.000172043011 40.9237579,-0.000172043011 L1.70782105,-0.000172043011 C0.764384211,-0.000172043011 0,0.771010753 0,1.72283871 L0,38.2768172 C0,39.2286452 0.764384211,39.999828 1.70782105,39.999828 L23.1075947,39.999828 C21.6854053,38.6514409 20.6532947,36.8604731 20.2077947,34.8385376" id="Fill-7"></path>
                        <path d="M18.5212895,17.8723404 L11.3203895,17.8723404 C11.1899368,17.8723404 11.0842105,17.7668085 11.0842105,17.6361702 L11.0842105,15.5553191 C11.0842105,15.4246809 11.1899368,15.3191489 11.3203895,15.3191489 L18.5212895,15.3191489 C18.6521684,15.3191489 18.7578947,15.4246809 18.7578947,15.5553191 L18.7578947,17.6361702 C18.7578947,17.7668085 18.6521684,17.8723404 18.5212895,17.8723404" id="Fill-10"></path>
                    </g>
                    <path d="M58.0855327,7 L76.9144673,7 C77.2096774,7 77.4491691,7.23924129 77.4491691,7.53523512 L77.4491691,10.1942871 C77.4491691,10.4902809 77.2096774,10.7295222 76.9144673,10.7295222 L58.0855327,10.7295222 C57.7903226,10.7295222 57.5508309,10.4902809 57.5508309,10.1942871 L57.5508309,7.53523512 C57.5508309,7.23924129 57.7903226,7 58.0855327,7 Z M60.6392962,19.4566923 L56.5347019,19.4566923 C56.2399804,19.4566923 56,19.2169618 56,18.920968 L56,16.2624052 C56,15.9664114 56.2399804,15.7271701 56.5347019,15.7271701 L78.4652981,15.7271701 C78.7605083,15.7271701 79,15.9664114 79,16.2624052 L79,18.920968 C79,19.2169618 78.7605083,19.4566923 78.4652981,19.4566923 L65.6608016,19.4566923 C65.4320626,19.4566923 65.2292278,19.6019984 65.1549365,19.8177559 L62.3934506,27.8731912 C62.2746823,28.2205559 62.5327468,28.5816194 62.8998045,28.5816194 L72.8519062,28.5816194 C73.2218964,28.5816194 73.4799609,28.2146849 73.3553275,27.8663418 L72.1324536,24.4455337 C72.0078201,24.0967014 72.2663734,23.7297669 72.6363636,23.7297669 L75.3367546,23.7297669 C75.5630499,23.7297669 75.7649071,23.8726267 75.8406647,24.0864272 L78.7468231,32.2861901 C78.8699902,32.6345332 78.6124145,33 78.242913,33 L75.556696,33 C75.3352884,33 75.1363636,32.8630111 75.0576735,32.6560601 L75.0571848,32.6560601 C74.9784946,32.449109 74.7790811,32.3121201 74.5576735,32.3121201 L60.8890518,32.3121201 L57.7218964,32.3121201 C57.3548387,32.3121201 57.0967742,31.9505673 57.2160313,31.6027134 L61.1451613,20.1656098 C61.2644184,19.8182451 61.0063539,19.4566923 60.6392962,19.4566923 Z M96.2632443,7.35762136 L96.2632443,12.5277627 C96.2632443,12.725357 96.4234435,12.8858719 96.6201623,12.8858719 L98.0794846,12.8858719 C98.2771772,12.8858719 98.4368895,12.725357 98.4368895,12.5277627 L98.4368895,7.35762136 C98.4368895,7.16051491 98.5970887,7 98.7938075,7 L101.353099,7 C101.550305,7 101.710504,7.16051491 101.710504,7.35762136 L101.710504,12.5277627 C101.710504,12.725357 101.870704,12.8858719 102.067422,12.8858719 L102.809987,12.8858719 C103.019366,12.8858719 103.198069,12.7770731 103.347068,12.560939 C103.495094,12.3443171 103.569594,12.0671971 103.569594,11.7305549 L103.569594,7.35762136 C103.569594,7.16051491 103.729794,7 103.926512,7 L106.485804,7 C106.68301,7 106.843209,7.16051491 106.843209,7.35762136 L106.843209,12.1999024 C106.843209,13.1390854 106.624092,13.9392205 106.188292,14.6012835 C105.751517,15.2633465 105.219305,15.594622 104.591169,15.594622 L101.710504,15.594622 L98.4368895,15.594622 L96.2632443,15.594622 L93.8013378,15.594622 L93.3470343,15.594622 C93.1498286,15.594622 92.9896293,15.434595 92.9896293,15.2365127 L92.9896293,7.35762136 C92.9896293,7.16051491 93.1498286,7 93.3470343,7 L95.9063263,7 C96.103532,7 96.2632443,7.16051491 96.2632443,7.35762136 Z M101.588772,19.7255634 L101.408122,20.4183633 C101.349204,20.644743 101.520116,20.8662438 101.753354,20.8662438 L103.071954,20.8662438 L103.909957,20.8662438 L106.633343,20.8662438 L106.843209,20.8662438 L106.843209,29.6413841 C106.843209,30.5805671 106.624092,31.3753354 106.188292,32.0252013 C105.751517,32.6745792 105.219305,33 104.591169,33 L103.584689,33 C103.359729,33 103.191252,32.7941116 103.234101,32.5730986 L103.674284,30.3278415 C103.831561,30.3278415 103.909957,30.2185547 103.909957,30.0024207 L103.909957,23.9326153 C103.909957,23.734533 103.750245,23.574506 103.553039,23.574506 L103.429359,23.574506 C103.23264,23.574506 103.071954,23.734533 103.071954,23.9326153 L103.071954,32.6418908 C103.071954,32.8394851 102.912242,33 102.715036,33 L100.757587,33 C100.560868,33 100.400669,32.8394851 100.400669,32.6418908 L100.400669,23.9326153 C100.400669,23.734533 100.240957,23.574506 100.043751,23.574506 L99.7890877,23.574506 C99.5923689,23.574506 99.4321697,23.734533 99.4321697,23.9326153 L99.4321697,32.6418908 C99.4321697,32.8394851 99.2724574,33 99.0747648,33 L97.1178024,33 C96.9210836,33 96.7603974,32.8394851 96.7603974,32.6418908 L96.7603974,23.9326153 C96.7603974,23.734533 96.6006852,23.574506 96.4034794,23.574506 L96.2797998,23.574506 C96.083081,23.574506 95.9228818,23.734533 95.9228818,23.9326153 L95.9228818,32.6418908 C95.9228818,32.8394851 95.7631695,33 95.5654769,33 L93.3470343,33 C93.1498286,33 92.9896293,32.8394851 92.9896293,32.6418908 L92.9896293,23.574506 L92.9896293,22.4552926 L92.9896293,21.2243531 C92.9896293,21.0267587 93.1498286,20.8662438 93.3470343,20.8662438 L96.7603974,20.8662438 L97.7157496,20.8662438 C97.8783834,20.8662438 98.0205663,20.7564692 98.0614682,20.5988816 L98.2416315,19.9060817 C98.3010367,19.6792141 98.1301251,19.4582012 97.8963998,19.4582012 L93.1108743,19.4582012 C92.9141556,19.4582012 92.7539563,19.2976863 92.7539563,19.1000919 L92.7539563,17.1075604 C92.7539563,16.909966 92.9141556,16.749939 93.1108743,16.749939 L106.642595,16.749939 C106.840288,16.749939 107,16.909966 107,17.1075604 L107,19.1000919 C107,19.2976863 106.840288,19.4582012 106.642595,19.4582012 L101.934004,19.4582012 C101.771857,19.4582012 101.629674,19.5679758 101.588772,19.7255634 Z M84.364679,9.74436584 L86.0036777,9.74436584 C86.2466546,9.74436584 86.4180531,9.50676474 86.3435532,9.27599407 L85.7572922,7.46885966 C85.6823054,7.23711321 85.8541909,7 86.0966809,7 L89.6122988,7 C89.7676288,7 89.9054293,7.10148055 89.9526613,7.24979828 L90.6591934,9.49407968 C90.7059384,9.64288529 90.843739,9.74436584 90.9995558,9.74436584 L92.1350712,9.74436584 C92.3327639,9.74436584 92.4924762,9.90439286 92.4924762,10.1019872 L92.4924762,12.9610065 C92.4924762,13.1590888 92.3327639,13.3191158 92.1350712,13.3191158 L84.364679,13.3191158 C84.1679602,13.3191158 84.007761,13.1590888 84.007761,12.9610065 L84.007761,10.1019872 C84.007761,9.90439286 84.1679602,9.74436584 84.364679,9.74436584 Z M84.722084,29.0486011 L84.0004571,15.0681916 C83.9902316,14.863279 84.1528655,14.6915427 84.3573751,14.6915427 L86.8889122,14.6915427 C87.0793009,14.6915427 87.2360917,14.8413241 87.2453433,15.0316001 L87.9616139,29.4247622 L88.5118422,29.4247622 L89.1516652,15.0330637 C89.159943,14.8422998 89.3172206,14.6915427 89.5085832,14.6915427 L92.0143132,14.6915427 C92.2178489,14.6915427 92.3799959,14.8613274 92.3717181,15.0647764 L91.7752317,29.0520163 C91.7669539,29.2554653 91.9291008,29.4247622 92.1321497,29.4247622 L92.1350712,29.4247622 C92.3327639,29.4247622 92.4924762,29.5852771 92.4924762,29.7828714 L92.4924762,32.6418908 C92.4924762,32.8394851 92.3327639,33 92.1350712,33 L84.364679,33 C84.1679602,33 84.007761,32.8394851 84.007761,32.6418908 L84.007761,29.7828714 C84.007761,29.5852771 84.1679602,29.4247622 84.364679,29.4247622 C84.5691887,29.4247622 84.7323094,29.2530258 84.722084,29.0486011 Z M131.088635,31.0607225 C131.176415,31.0607225 131.298819,31.0126894 131.455848,30.9171083 C131.525584,30.8220124 131.561184,30.677913 131.561184,30.4857804 L131.561184,28.1253639 C131.561184,27.9021796 131.379284,27.7212062 131.154958,27.7212062 L131.15447,27.7212062 C130.929656,27.7212062 130.747757,27.9021796 130.747757,28.1253639 L130.747757,32.5686721 L131.088635,31.0607225 Z M131.16715,21.3648205 L130.747757,21.3648205 L130.747757,24.4078898 C130.747757,24.6310741 130.929656,24.8120475 131.15447,24.8120475 L131.154958,24.8120475 C131.379284,24.8120475 131.561184,24.6310741 131.561184,24.4078898 L131.561184,22.0824065 C131.561184,21.6040158 131.429514,21.3648205 131.16715,21.3648205 Z M128.335275,24.4078898 L128.335275,21.7689781 C128.335275,21.5457938 128.152888,21.3648205 127.929049,21.3648205 L127.902227,21.3648205 C127.677414,21.3648205 127.495514,21.5457938 127.495514,21.7689781 L127.495514,24.4078898 C127.495514,24.6310741 127.677414,24.8120475 127.902227,24.8120475 L127.929049,24.8120475 C128.152888,24.8120475 128.335275,24.6310741 128.335275,24.4078898 Z M125.083032,24.4078898 L125.083032,21.7689781 C125.083032,21.5457938 124.901132,21.3648205 124.676806,21.3648205 C124.451992,21.3648205 124.270093,21.5457938 124.270093,21.7689781 L124.270093,24.4078898 C124.270093,24.6310741 124.451992,24.8120475 124.676806,24.8120475 C124.901132,24.8120475 125.083032,24.6310741 125.083032,24.4078898 Z M128.335275,32.5953572 L128.335275,28.1253639 C128.335275,27.9021796 128.152888,27.7212062 127.929049,27.7212062 L127.902227,27.7212062 C127.677414,27.7212062 127.495514,27.9021796 127.495514,28.1253639 L127.495514,32.5953572 C127.495514,32.8185415 127.313615,33 127.089289,33 L125.489745,33 C125.264931,33 125.083032,32.8185415 125.083032,32.5953572 L125.083032,28.1253639 C125.083032,27.9021796 124.901132,27.7212062 124.676806,27.7212062 C124.451992,27.7212062 124.270093,27.9021796 124.270093,28.1253639 L124.270093,32.5953572 C124.270093,32.8185415 124.088194,33 123.863867,33 L122.237502,33 C122.012688,33 121.830789,32.8185415 121.830789,32.5953572 L121.830789,18.9316265 C121.830789,18.7084422 122.012688,18.5274688 122.237502,18.5274688 L132.163938,18.5274688 C132.671111,18.5274688 133.10367,18.7734567 133.462105,19.263977 C133.820539,19.7544973 134,20.3473912 134,21.0412033 L134,29.6959021 C134,30.1267448 133.929776,30.5459431 133.790304,30.9525267 C133.702036,31.1684332 133.606454,31.3659028 133.501606,31.5454206 C133.396757,31.7249384 133.282644,31.8865044 133.160727,32.0301187 C133.020767,32.1737329 132.880807,32.3120102 132.741335,32.44398 C132.600887,32.5754647 132.443371,32.6763828 132.268787,32.7486751 C131.954242,32.9160633 131.58703,33 131.16715,33 L128.741988,33 C128.517174,33 128.335275,32.8185415 128.335275,32.5953572 Z M121.253393,11.9653654 L121.253393,14.0652385 C121.253393,14.2884228 121.435292,14.4693961 121.660106,14.4693961 L129.856304,14.4693961 C130.101112,14.4693961 130.284475,14.3743002 130.406879,14.1826528 C130.581463,13.9434575 130.669243,13.6678734 130.669243,13.3563858 L130.669243,11.9653654 C130.669243,11.7416959 130.487344,11.5607225 130.263017,11.5607225 L121.660106,11.5607225 C121.435292,11.5607225 121.253393,11.7416959 121.253393,11.9653654 Z M117.267213,32.8563858 L117.887524,29.9894379 C117.893376,29.9612973 117.896302,29.9331567 117.896302,29.9040457 L117.896302,9.09259536 C117.896302,8.86941106 118.078201,8.68843771 118.303015,8.68843771 L123.78194,8.68843771 C124.067712,8.68843771 124.264241,8.40314996 124.160856,8.13775472 L123.932628,7.55019781 C123.829731,7.28480257 124.02626,7 124.312032,7 L127.733495,7 C127.905641,7 128.058768,7.10771068 128.116313,7.26879152 L128.527415,8.41916101 C128.58496,8.58024185 128.738574,8.68843771 128.91072,8.68843771 L133.593774,8.68843771 C133.818101,8.68843771 134,8.86941106 134,9.09259536 L134,13.4281929 C134,13.9551019 133.929776,14.4577517 133.790304,14.9366276 C133.649856,15.4155035 133.44016,15.8468314 133.160727,16.229641 C132.880807,16.6124505 132.574553,16.899679 132.242453,17.0908412 C131.857684,17.283459 131.482182,17.3785549 131.114969,17.3785549 L121.660106,17.3785549 C121.435292,17.3785549 121.253393,17.5595283 121.253393,17.7827125 L121.253393,29.9030753 C121.253393,29.9326715 121.249979,29.9617825 121.244127,29.9908935 L120.642835,32.6831753 C120.601384,32.8685153 120.436553,33 120.245875,33 L111.773171,33 C111.548357,33 111.366457,32.8185415 111.366457,32.5953572 L111.366457,30.172352 C111.366457,29.9491677 111.548357,29.7681944 111.773171,29.7681944 L116.860987,29.7681944 C117.085314,29.7681944 117.267213,29.9491677 117.267213,30.172352 L117.267213,32.8563858 Z M111.010949,27.582929 L112.874807,19.6705606 C112.93479,19.4172949 112.741675,19.1742181 112.479311,19.1742181 L111.406934,19.1742181 C111.145057,19.1742181 110.950966,18.9311413 111.010949,18.6778756 L113.679456,7.34787639 C113.722371,7.1649623 113.886226,7.03541838 114.074953,7.03541838 L116.754188,7.03541838 C117.01704,7.03541838 117.210156,7.27849519 117.150173,7.53224603 L115.286315,15.4450996 C115.226332,15.6988505 115.419935,15.9419273 115.681812,15.9419273 L116.754188,15.9419273 C117.01704,15.9419273 117.210156,16.1850041 117.150173,16.4382698 L115.286315,24.3516086 C115.226332,24.6048742 115.419935,24.847951 115.681812,24.847951 L116.860987,24.847951 C117.085314,24.847951 117.267213,25.0289244 117.267213,25.2521087 L117.267213,27.6751138 C117.267213,27.8987833 117.085314,28.0797567 116.860987,28.0797567 L111.406934,28.0797567 C111.145057,28.0797567 110.950966,27.8366799 111.010949,27.582929 Z M157.625334,13.932878 C157.869859,13.932878 158.071032,13.824567 158.227879,13.6084329 C158.385213,13.391811 158.464124,13.1273761 158.464124,12.8136646 L158.464124,10.8587003 C158.464124,10.5625528 158.223982,10.3220244 157.927824,10.3220244 L152.79133,10.3220244 C152.495171,10.3220244 152.255517,10.5625528 152.255517,10.8587003 L152.255517,13.396202 C152.255517,13.6928374 152.495171,13.932878 152.79133,13.932878 L157.625334,13.932878 Z M149.228663,18.4111951 L161.464187,18.4111951 C161.760346,18.4111951 162,18.6512357 162,18.9478711 L162,21.1970314 C162,21.493179 161.760346,21.7332195 161.464187,21.7332195 L157.716422,21.7332195 C157.419776,21.7332195 157.180122,21.9737479 157.180122,22.2703834 L157.180122,23.3271472 C157.180122,23.6232947 157.419776,23.8638232 157.716422,23.8638232 L161.123703,23.8638232 C161.419861,23.8638232 161.659515,24.1043516 161.659515,24.4004991 L161.659515,26.6857631 C161.659515,26.9819106 161.419861,27.2224391 161.123703,27.2224391 L157.716422,27.2224391 C157.419776,27.2224391 157.180122,27.4624796 157.180122,27.7596029 L157.180122,29.1769154 C157.180122,29.4735509 157.419776,29.7135914 157.716422,29.7135914 L161.464187,29.7135914 C161.760346,29.7135914 162,29.9541198 162,30.2502674 L162,32.4628361 C162,32.7599595 161.760346,33 161.464187,33 L157.180122,33 L153.538545,33 L149.228663,33 C148.932017,33 148.692363,32.7599595 148.692363,32.4628361 L148.692363,30.2502674 C148.692363,29.9541198 148.932017,29.7135914 149.228663,29.7135914 L153.002732,29.7135914 C153.29889,29.7135914 153.538545,29.4735509 153.538545,29.1769154 L153.538545,27.7596029 C153.538545,27.4624796 153.29889,27.2224391 153.002732,27.2224391 L149.569147,27.2224391 C149.272989,27.2224391 149.032848,26.9819106 149.032848,26.6857631 L149.032848,24.4004991 C149.032848,24.1043516 149.272989,23.8638232 149.569147,23.8638232 L153.002732,23.8638232 C153.29889,23.8638232 153.538545,23.6232947 153.538545,23.3271472 L153.538545,22.2703834 C153.538545,21.9737479 153.29889,21.7332195 153.002732,21.7332195 L149.228663,21.7332195 C148.932017,21.7332195 148.692363,21.493179 148.692363,21.1970314 L148.692363,18.9478711 C148.692363,18.6512357 148.932017,18.4111951 149.228663,18.4111951 Z M161.762294,7 C161.893812,7 162,7.10684731 162,7.23808898 L162,13.3191158 C162,13.8733557 161.92596,14.3905162 161.777394,14.8720609 C161.629315,15.3540936 161.424245,15.7746524 161.162184,16.1366647 L161.148545,16.1547166 C160.625884,16.8694714 159.793913,17.2919818 158.909335,17.2919818 L158.777818,17.2919818 L152.255517,17.2919818 L149.228663,17.2919818 C148.932017,17.2919818 148.692363,17.0514533 148.692363,16.7548179 L148.692363,13.932878 L148.692363,7 L149.269092,7 L152.255517,7 L158.464124,7 L161.762294,7 Z M145.795078,18.1945732 L146.817506,18.1945732 C147.103922,18.1945732 147.340167,18.420465 147.352832,18.7078306 L147.960248,32.4399054 C147.973887,32.7453229 147.730336,33 147.424923,33 L146.402008,33 C146.115104,33 145.879347,32.7741082 145.866195,32.4867426 L145.259266,18.7551557 C145.246114,18.4497382 145.489665,18.1945732 145.795078,18.1945732 Z M140.581621,33 L139.559194,33 C139.254267,33 139.010716,32.7458107 139.023868,32.4408812 L139.606442,18.7088064 C139.61862,18.4209529 139.854865,18.1945732 140.141768,18.1945732 L141.164683,18.1945732 C141.469609,18.1945732 141.71316,18.4492503 141.700496,18.7541799 L141.116947,32.4857668 C141.104769,32.7731324 140.869012,33 140.581621,33 Z M141.502245,16.966561 L139.535813,16.966561 C139.239654,16.966561 139,16.7260325 139,16.4293971 L139,13.9279991 C139,13.6318515 139.239654,13.391811 139.535813,13.391811 L141.502245,13.391811 C141.79889,13.391811 142.038545,13.1507947 142.038545,12.8546471 L142.038545,11.4836839 C142.038545,11.1753392 141.778919,10.9299319 141.470583,10.9484716 L139.620081,11.0587341 C139.311746,11.0772738 139.05212,10.8323544 139.05212,10.5235218 L139.05212,8.04407874 C139.05212,7.76012835 139.272777,7.52496669 139.555297,7.50789064 L147.338218,7.03464 C147.646554,7.01561239 147.906667,7.26101968 147.906667,7.57034021 L147.906667,10.0492954 C147.906667,10.3332458 147.68601,10.5684074 147.403003,10.5854835 L145.45021,10.7040401 C145.167203,10.7211161 144.946546,10.9557899 144.946546,11.2397403 L144.946546,12.8546471 C144.946546,13.1507947 145.1862,13.391811 145.482358,13.391811 L147.448791,13.391811 C147.745436,13.391811 147.98509,13.6318515 147.98509,13.9279991 L147.98509,16.4293971 C147.98509,16.7260325 147.745436,16.966561 147.448791,16.966561 L145.482358,16.966561 C145.1862,16.966561 144.946546,17.2066015 144.946546,17.5032369 L144.946546,32.4628361 C144.946546,32.7599595 144.706891,33 144.410246,33 L142.574844,33 C142.278199,33 142.038545,32.7599595 142.038545,32.4628361 L142.038545,17.5032369 C142.038545,17.2066015 141.79889,16.966561 141.502245,16.966561 Z" id="Combined-Shape"></path>
                </g>
            </g>
        </g>
    </g>
</svg>